<svg width="1024" height="1024" viewBox="0 0 1024 1024" fill="none" xmlns="http://www.w3.org/2000/svg">
<rect width="1024" height="1024" rx="256" fill="url(#paint0_linear_410_2303)" fill-opacity="0.8"/>
<rect width="1024" height="1024" rx="256" fill="url(#paint1_linear_410_2303)" fill-opacity="0.4"/>
<g filter="url(#filter0_d_410_2303)">
<circle cx="512" cy="512" r="360" fill="url(#paint2_linear_410_2303)"/>
</g>
<path d="M622.156 437.531L608.328 446.672C599.891 434.172 588.875 424.328 575.281 417.141C561.844 409.797 547.234 406.125 531.453 406.125C505.828 406.125 483.953 415.188 465.828 433.312C447.703 451.438 438.641 473.312 438.641 498.938C438.641 524.562 447.703 546.438 465.828 564.562C483.953 582.688 505.828 591.75 531.453 591.75C547.234 591.75 561.844 588.078 575.281 580.734C588.875 573.391 599.891 563.469 608.328 550.969L621.922 560.812C611.922 575.5 598.953 587.141 583.016 595.734C567.078 604.328 549.891 608.625 531.453 608.625C516.609 608.625 502.391 605.734 488.797 599.953C475.359 594.172 463.719 586.359 453.875 576.516C444.031 566.672 436.219 555.031 430.438 541.594C424.656 528 421.766 513.781 421.766 498.938C421.766 484.094 424.656 469.953 430.438 456.516C436.219 442.922 444.031 431.203 453.875 421.359C463.719 411.516 475.359 403.703 488.797 397.922C502.391 392.141 516.609 389.25 531.453 389.25C550.047 389.25 567.312 393.625 583.25 402.375C599.188 410.969 612.156 422.688 622.156 437.531ZM650.047 418.312L635.984 427.453C624.422 410.578 609.422 397.219 590.984 387.375C572.703 377.375 552.859 372.375 531.453 372.375C508.484 372.375 487.312 378.078 467.938 389.484C448.562 400.734 433.172 416.047 421.766 435.422C410.516 454.797 404.891 475.969 404.891 498.938C404.891 521.906 410.516 543.078 421.766 562.453C433.172 581.828 448.562 597.219 467.938 608.625C487.312 619.875 508.484 625.5 531.453 625.5C552.859 625.5 572.781 620.5 591.219 610.5C609.656 600.5 624.656 586.984 636.219 569.953L650.047 579.562C636.922 598.938 619.891 614.25 598.953 625.5C578.172 636.75 555.672 642.375 531.453 642.375C505.516 642.375 481.531 635.969 459.5 623.156C437.469 610.344 420.047 592.922 407.234 570.891C394.422 548.859 388.016 524.875 388.016 498.938C388.016 473 394.422 449.016 407.234 426.984C420.047 404.953 437.469 387.531 459.5 374.719C481.531 361.906 505.516 355.5 531.453 355.5C555.672 355.5 578.172 361.125 598.953 372.375C619.891 383.625 636.922 398.938 650.047 418.312ZM678.172 399.562L664.109 408.703C649.422 387.141 630.359 370.109 606.922 357.609C583.641 344.953 558.484 338.625 531.453 338.625C509.734 338.625 488.953 342.844 469.109 351.281C449.266 359.719 432.156 371.125 417.781 385.5C403.562 399.719 392.234 416.75 383.797 436.594C375.359 456.438 371.141 477.219 371.141 498.938C371.141 520.656 375.359 541.438 383.797 561.281C392.234 581.125 403.562 598.234 417.781 612.609C432.156 626.828 449.266 638.156 469.109 646.594C488.953 655.031 509.734 659.25 531.453 659.25C558.641 659.25 583.875 652.922 607.156 640.266C630.438 627.609 649.422 610.5 664.109 588.938L677.703 599.016C661.453 622.766 640.438 641.594 614.656 655.5C589.031 669.25 561.297 676.125 531.453 676.125C499.422 676.125 469.812 668.234 442.625 652.453C415.438 636.516 393.875 614.953 377.938 587.766C362.156 560.578 354.266 530.969 354.266 498.938C354.266 466.906 362.156 437.297 377.938 410.109C393.875 382.922 415.438 361.438 442.625 345.656C469.812 329.719 499.422 321.75 531.453 321.75C561.453 321.75 589.344 328.781 615.125 342.844C640.906 356.75 661.922 375.656 678.172 399.562ZM705.828 380.344L691.766 389.484C673.953 363.391 650.906 342.766 622.625 327.609C594.5 312.453 564.109 304.875 531.453 304.875C505.203 304.875 480.047 310.031 455.984 320.344C432.078 330.5 411.453 344.25 394.109 361.594C376.766 378.938 362.938 399.641 352.625 423.703C342.469 447.609 337.391 472.688 337.391 498.938C337.391 525.188 342.469 550.344 352.625 574.406C362.938 598.312 376.766 618.938 394.109 636.281C411.453 653.625 432.078 667.453 455.984 677.766C480.047 687.922 505.203 693 531.453 693C564.109 693 594.578 685.344 622.859 670.031C651.141 654.719 674.188 634.016 692 607.922L705.594 618.234C686.219 646.359 661.219 668.703 630.594 685.266C599.969 701.672 566.922 709.875 531.453 709.875C502.859 709.875 475.516 704.25 449.422 693C423.484 681.906 401.062 666.984 382.156 648.234C363.406 629.328 348.406 606.906 337.156 580.969C326.062 554.875 320.516 527.531 320.516 498.938C320.516 470.344 326.062 443.078 337.156 417.141C348.406 391.047 363.406 368.625 382.156 349.875C401.062 330.969 423.484 315.969 449.422 304.875C475.516 293.625 502.859 288 531.453 288C567.078 288 600.203 296.281 630.828 312.844C661.453 329.406 686.453 351.906 705.828 380.344Z" fill="white"/>
<defs>
<filter id="filter0_d_410_2303" x="98" y="108" width="848" height="848" filterUnits="userSpaceOnUse" color-interpolation-filters="sRGB">
<feFlood flood-opacity="0" result="BackgroundImageFix"/>
<feColorMatrix in="SourceAlpha" type="matrix" values="0 0 0 0 0 0 0 0 0 0 0 0 0 0 0 0 0 0 127 0" result="hardAlpha"/>
<feOffset dx="10" dy="20"/>
<feGaussianBlur stdDeviation="32"/>
<feComposite in2="hardAlpha" operator="out"/>
<feColorMatrix type="matrix" values="0 0 0 0 0 0 0 0 0 0 0 0 0 0 0 0 0 0 0.25 0"/>
<feBlend mode="normal" in2="BackgroundImageFix" result="effect1_dropShadow_410_2303"/>
<feBlend mode="normal" in="SourceGraphic" in2="effect1_dropShadow_410_2303" result="shape"/>
</filter>
<linearGradient id="paint0_linear_410_2303" x1="262.5" y1="8.466e-06" x2="1024" y2="867.5" gradientUnits="userSpaceOnUse">
<stop stop-color="#00FF75"/>
<stop offset="1" stop-color="#3385FF"/>
</linearGradient>
<linearGradient id="paint1_linear_410_2303" x1="1043" y1="200.5" x2="2.16952e-05" y2="203.5" gradientUnits="userSpaceOnUse">
<stop offset="0.23" stop-color="#00FF75"/>
<stop offset="1" stop-color="#E2FF6E"/>
</linearGradient>
<linearGradient id="paint2_linear_410_2303" x1="512" y1="152" x2="512" y2="872" gradientUnits="userSpaceOnUse">
<stop stop-color="#FEE400"/>
<stop offset="1" stop-color="#FF8A00"/>
</linearGradient>
</defs>
</svg>
